{
  "accessors": [
    {
      "bufferView": 2,
      "componentType": 5126,
      "count": 823,
      "max": [
        0.5676764845848083,
        1.1975054740905762,
        0.08456631004810333
      ],
      "min": [
        -0.5667478442192078,
        -0.003538374789059162,
        -0.09158965200185776
      ],
      "type": "VEC3"
    },
    {
      "bufferView": 2,
      "byteOffset": 9876,
      "componentType": 5126,
      "count": 823,
      "max": [
        0.9999821782112122,
        0.9999954700469971,
        0.9999996423721313
      ],
      "min": [
        -0.9999988079071045,
        -0.9999650120735168,
        -1.0
      ],
      "type": "VEC3"
    },
    {
      "bufferView": 1,
      "componentType": 5126,
      "count": 823,
      "max": [
        0.9977174401283264,
        0.9992227554321289
      ],
      "min": [
        0.0005771794239990413,
        0.00013554515317082405
      ],
      "type": "VEC2"
    },
    {
      "bufferView": 1,
      "byteOffset": 6584,
      "componentType": 5126,
      "count": 823,
      "max": [
        0.9977174401283264,
        0.9992227554321289
      ],
      "min": [
        0.0005771794239990413,
        0.00013554515317082405
      ],
      "type": "VEC2"
    },
    {
      "bufferView": 1,
      "byteOffset": 13168,
      "componentType": 5126,
      "count": 823,
      "max": [
        0.9977174401283264,
        0.9992227554321289
      ],
      "min": [
        0.0005771794239990413,
        0.00013554515317082405
      ],
      "type": "VEC2"
    },
    {
      "bufferView": 0,
      "componentType": 5125,
      "count": 1500,
      "type": "SCALAR"
    }
  ],
  "asset": {
    "extras": {
      "author": "TheArbuzikYT (https://sketchfab.com/TheArbuzikYT)",
      "license": "SKETCHFAB Standard (https://sketchfab.com/licenses)",
      "source": "https://sketchfab.com/3d-models/coin-hyper-casual-bb6ade669d664962b16df46ab1f46bef",
      "title": "Coin Hyper Casual"
    },
    "generator": "Sketchfab-17.19.0",
    "version": "2.0"
  },
  "bufferViews": [
    {
      "buffer": 0,
      "byteLength": 6000,
      "name": "floatBufferViews",
      "target": 34963
    },
    {
      "buffer": 0,
      "byteLength": 19752,
      "byteOffset": 6000,
      "byteStride": 8,
      "name": "floatBufferViews",
      "target": 34962
    },
    {
      "buffer": 0,
      "byteLength": 19752,
      "byteOffset": 25752,
      "byteStride": 12,
      "name": "floatBufferViews",
      "target": 34962
    }
  ],
  "buffers": [
    {
      "byteLength": 45504,
      "uri": "scene.bin"
    }
  ],
  "materials": [
    {
      "doubleSided": true,
      "name": "Material.001",
      "pbrMetallicRoughness": {
        "baseColorFactor": [
          1.0,
          0.47230732036261786,
          0.0,
          1.0
        ],
        "metallicFactor": 0.0
      }
    }
  ],
  "meshes": [
    {
      "name": "node_0_Material.001_0",
      "primitives": [
        {
          "attributes": {
            "NORMAL": 1,
            "POSITION": 0,
            "TEXCOORD_0": 2,
            "TEXCOORD_1": 3,
            "TEXCOORD_2": 4
          },
          "indices": 5,
          "material": 0,
          "mode": 4
        }
      ]
    }
  ],
  "nodes": [
    {
      "children": [
        1
      ],
      "matrix": [
        1.0,
        0.0,
        0.0,
        0.0,
        0.0,
        2.220446049250313e-16,
        -1.0,
        0.0,
        0.0,
        1.0,
        2.220446049250313e-16,
        0.0,
        0.0,
        0.0,
        0.0,
        1.0
      ],
      "name": "Sketchfab_model"
    },
    {
      "children": [
        2
      ],
      "matrix": [
        0.009999999776482582,
        0.0,
        0.0,
        0.0,
        0.0,
        0.0,
        0.009999999776482582,
        0.0,
        0.0,
        -0.009999999776482582,
        0.0,
        0.0,
        0.0,
        0.0,
        0.0,
        1.0
      ],
      "name": "HyperCasual_Coin.fbx"
    },
    {
      "children": [
        3
      ],
      "name": "RootNode"
    },
    {
      "children": [
        4
      ],
      "matrix": [
        100.0,
        0.0,
        0.0,
        0.0,
        0.0,
        99.99999999999972,
        -7.5497901264043296e-06,
        0.0,
        0.0,
        7.5497901264043296e-06,
        99.99999999999972,
        0.0,
        0.0,
        0.0,
        0.0,
        1.0
      ],
      "name": "node_0"
    },
    {
      "mesh": 0,
      "name": "node_0_Material.001_0"
    }
  ],
  "scene": 0,
  "scenes": [
    {
      "name": "Sketchfab_Scene",
      "nodes": [
        0
      ]
    }
  ]
}
